Coordinates
version=1
nRows=16
nColumns=33
inDegrees=yes

Units are S.I. units (second, meters, Newtons, ...)
Angles are in degrees.

endheader
time	ground_thorax_rot_x	ground_thorax_rot_y	ground_thorax_rot_z	ground_thorax_tx	ground_thorax_ty	ground_thorax_tz	clav_prot_r	clav_elev_r	scapula_abduction_r	scapula_elevation_r	scapula_upward_rot_r	scapula_winging_r	shoulder_elv_r	plane_of_elev_r	axial_rot_r	elbow_flexion_r	pro_sup_r	wrist_flex_r	wrist_dev_r	clav_prot_l	clav_elev_l	scapula_abduction_l	scapula_elevation_l	scapula_upward_rot_l	scapula_winging_l	shoulder_elv_l	plane_of_elev_l	axial_rot_l	elbow_flexion_l	pro_sup_l	wrist_flex_l	wrist_dev_l
      2.53000000	      0.72112670	      8.55210650	      1.88974175	     -0.19406791	      1.00070378	      0.01309173	    -20.35603689	     -9.16693385	    -27.79908571	     -4.75919453	      7.10175902	      2.77562652	     64.20491312	    -49.10760981	     60.82739116	     81.95830729	     17.09235077	     37.30438908	    -22.31302030	     -2.99764833	     -3.42754838	      3.07591584	     -4.81760354	     -5.08041752	     -1.38296727	     50.80167959	    -47.34830781	    -22.06101664	     82.20494090	     26.20894581	    -17.94629982	    -24.99999983
      2.54000000	      0.71886070	      8.56351843	      2.05268981	     -0.19403748	      1.00074030	      0.01310657	    -20.41249943	     -9.20300399	    -27.83005761	     -4.82981982	      7.19598095	      2.76240068	     64.23621508	    -49.02319090	     60.66933722	     82.32499419	     17.02644746	     37.29985866	    -22.30535526	     -3.00267619	     -3.43245307	      3.06213193	     -4.78924870	     -5.02297549	     -1.37278741	     50.80455294	    -47.24641905	    -22.04727977	     82.45635183	     26.16160617	    -17.91376476	    -24.99999983
      2.55000000	      0.70081002	      8.59107673	      2.29379059	     -0.19417856	      1.00123198	      0.01311629	    -20.40871141	     -9.25856530	    -27.77756964	     -4.90334947	      7.25927610	      2.77327376	     64.23943684	    -48.91920511	     60.60561250	     82.41247790	     17.01196167	     37.30096139	    -22.30730860	     -3.00613961	     -3.47750504	      3.03227348	     -4.72009629	     -4.95713774	     -1.36244966	     50.82888015	    -47.13323080	    -22.02369715	     82.52181794	     26.15088210	    -17.91528521	    -24.99999983
      2.56000000	      0.53514483	      8.71206649	      2.03092272	     -0.19430605	      1.00076005	      0.01323516	    -20.51310701	     -9.41484158	    -28.12446125	     -4.92038793	      6.88129697	      2.92030654	     64.00254029	    -48.51064729	     59.56860224	     83.51566027	     15.27029332	     34.42305524	    -20.02775913	     -2.80840428	     -3.40648647	      2.68706905	     -4.78457230	     -4.94680209	     -1.26054251	     50.91878380	    -46.68564105	    -21.50062575	     83.19927824	     24.80861488	    -15.82878621	    -24.99999983
      2.57000000	      0.51758622	      8.73116661	      2.29735283	     -0.19440032	      1.00124952	      0.01324246	    -20.51283467	     -9.47368614	    -28.06968250	     -5.00217962	      6.95865808	      2.92794484	     64.01756228	    -48.39700542	     59.49443445	     83.60503483	     15.25723224	     34.43027800	    -20.03339309	     -2.81110617	     -3.45414580	      2.65360745	     -4.71111394	     -4.87596819	     -1.24828023	     50.94461205	    -46.56352088	    -21.47660880	     83.26377037	     24.79841698	    -15.83119608	    -24.99999983
      2.58000000	      0.51838523	      8.83714260	      2.05256182	     -0.19435227	      1.00093550	      0.01328228	    -20.65818882	     -9.58230066	    -28.36591295	     -5.06145784	      6.81697095	      2.99828120	     63.86077971	    -47.96776504	     58.58267910	     84.56530645	     13.80552779	     32.27314619	    -18.03708273	     -2.71675058	     -3.45911605	      2.47142689	     -4.69533330	     -4.84570188	     -1.19988026	     50.82442815	    -46.02176379	    -20.92570214	     83.74513381	     23.60683907	    -13.95420013	    -24.99999983
      2.59000000	      0.54497385	      8.87846049	      2.15907048	     -0.19443074	      1.00089314	      0.01328401	    -20.64806265	     -9.62319499	    -28.28902685	     -5.13161545	      6.91038761	      2.99550986	     63.88956552	    -47.77327163	     58.40912017	     84.96496777	     13.65604142	     32.16101859	    -17.89080826	     -2.67451043	     -3.49146629	      2.35108402	     -4.62696740	     -4.75179645	     -1.16087374	     50.83847460	    -45.77716710	    -20.95842604	     84.00333575	     23.49340753	    -13.78002730	    -24.99999983
      2.60000000	      0.53217127	      9.00037554	      1.95254492	     -0.19456518	      1.00128547	      0.01333263	    -20.75082261	     -9.84444069	    -28.47693232	     -5.30148600	      6.79378186	      3.11340159	     63.51109600	    -47.40755774	     57.37841766	     85.42238995	     12.36182830	     30.27330193	    -16.38673605	     -2.61000531	     -3.58662756	      2.17121410	     -4.49584394	     -4.64372787	     -1.11351040	     50.78219494	    -45.19751669	    -20.60694421	     84.18924781	     22.60787081	    -12.29655535	    -24.56600378
      2.61000000	      0.40524527	      8.95959204	      2.36754415	     -0.19475719	      1.00096603	      0.01340703	    -20.69570711	     -9.69788465	    -28.46740633	     -5.12905148	      6.69951243	      3.07320260	     63.41879063	    -47.01760273	     57.05333568	     85.95000630	     11.33781736	     28.84354366	    -14.78763302	     -2.46640419	     -3.39743268	      1.95046966	     -4.66954294	     -4.63633433	     -1.01715845	     50.83064278	    -45.13485699	    -20.46955269	     84.71485710	     21.76378412	    -10.79357684	    -23.87493711
      2.62000000	      0.37989638	      8.98293668	      2.67551883	     -0.19479829	      1.00132934	      0.01331949	    -20.68726344	     -9.78514200	    -28.38617337	     -5.24231890	      6.79158106	      3.09103194	     63.42741363	    -46.85920658	     56.95847092	     86.04490928	     11.31737517	     28.84451926	    -14.78878779	     -2.45988810	     -3.46307567	      1.89756797	     -4.57996330	     -4.56526374	     -1.00804872	     50.84325452	    -44.97456757	    -20.46136060	     84.79980455	     21.75153863	    -10.78826614	    -23.87856078
      2.63000000	      0.27261389	      9.04461701	      2.30632869	     -0.19500665	      1.00118926	      0.01346091	    -20.74193347	    -10.03047703	    -28.53128898	     -5.40499296	      6.60081582	      3.24009735	     62.76404224	    -46.22957098	     55.64673105	     86.57229135	      9.65021231	     26.50014381	    -12.79536424	     -2.35149021	     -3.46558467	      1.65384640	     -4.52915577	     -4.44520389	     -0.92480052	     50.95777415	    -44.26130308	    -20.15186622	     85.38443785	     20.75364289	     -8.82335394	    -22.32304383
      2.64000000	      0.25263745	      9.07235865	      2.64603398	     -0.19498672	      1.00143008	      0.01338725	    -20.73301893	    -10.11855983	    -28.44673101	     -5.52066821	      6.69773536	      3.25919424	     62.77940443	    -46.06662030	     55.55028485	     86.65483027	      9.63058959	     26.49977915	    -12.79545796	     -2.34512622	     -3.53491485	      1.59826115	     -4.43398387	     -4.36969644	     -0.91575038	     50.97133286	    -44.09228391	    -20.14406484	     85.46892202	     20.74176400	     -8.81729196	    -22.32457139
      2.65000000	      0.24788150	      9.20691276	      2.43715391	     -0.19520437	      1.00105756	      0.01340021	    -20.76769808	    -10.16805285	    -28.58565595	     -5.50901561	      6.52863561	      3.31712335	     62.23160242	    -45.38344408	     54.22316197	     87.14485353	      7.86793983	     24.00319160	    -10.47615385	     -2.21140403	     -3.50514573	      1.37094309	     -4.47214889	     -4.39205976	     -0.84878900	     51.04843272	    -43.24473385	    -19.88480140	     86.10811110	     19.68492315	     -6.53208390	    -20.34799753
      2.66000000	      0.22266924	      9.22819863	      2.79572259	     -0.19514275	      1.00119488	      0.01334216	    -20.75145040	    -10.26847097	    -28.48859548	     -5.63459983	      6.62310860	      3.34326000	     62.23689340	    -45.20355541	     54.12935138	     87.21528937	      7.84961061	     24.00144493	    -10.47566295	     -2.20091350	     -3.58296164	      1.30528190	     -4.36848272	     -4.31386676	     -0.83931041	     51.06799103	    -43.06631900	    -19.87832265	     86.16859960	     19.67479784	     -6.52433326	    -20.34520577
      2.67000000	      0.11460847	      9.33410246	      2.56850454	     -0.19550932	      1.00125374	      0.01337868	    -20.76951940	    -10.45881284	    -28.61927620	     -5.72194238	      6.36928626	      3.48629956	     61.44255166	    -44.41661800	     52.63028760	     87.30958995	      6.20580910	     21.52480083	     -8.32463268	     -2.07903566	     -3.58781463	      1.09546082	     -4.37685498	     -4.34199565	     -0.78689775	     51.28255526	    -42.11902334	    -19.63457562	     86.57133437	     18.68651657	     -4.32213745	    -18.31970385
      2.68000000	      0.13434552	      9.41291608	      2.56779970	     -0.19563507	      1.00123204	      0.01332030	    -20.75905093	    -10.60938296	    -28.60873326	     -5.83616303	      6.30175916	      3.56818395	     61.17864085	    -43.82669753	     51.86533874	     87.39784405	      5.40536573	     20.43592243	     -7.20165598	     -1.99834807	     -3.69973362	      0.97780242	     -4.32801429	     -4.47243355	     -0.80252046	     51.41042012	    -41.38176241	    -19.37520034	     86.77905214	     18.13355080	     -3.09837901	    -17.17648099
